HIERARCHY
ROOT Pelvis
{
	OFFSET 0.000000 0.000000 0.000000
	CHANNELS 6 Xposition Yposition Zposition Xrotation Yrotation Zrotation
	JOINT LeftUpLeg_virtual
	{
		OFFSET 0.000000 0.000000 0.000000
		CHANNELS 3 Xrotation Yrotation Zrotation
		JOINT LeftUpLeg
		{
			OFFSET 18.735201 -5.666702 -4.541200
			CHANNELS 3 Xrotation Yrotation Zrotation
			JOINT LeftLeg
			{
				OFFSET -0.021200 -31.938179 0.493100
				CHANNELS 3 Xrotation Yrotation Zrotation
				JOINT LeftFoot
				{
					OFFSET 0.021200 -31.938179 -4.336299
					CHANNELS 3 Xrotation Yrotation Zrotation
					JOINT LeftToeBase
					{
						OFFSET 0.943001 -26.722000 15.023500
						CHANNELS 3 Xrotation Yrotation Zrotation
						End Site
						{
							OFFSET 0 0 0
						}
					}
				}
			}
		}
	}
	JOINT RightUpLeg_virtual
	{
		OFFSET 0.000000 0.000000 0.000000
		CHANNELS 3 Xrotation Yrotation Zrotation
		JOINT RightUpLeg
		{
			OFFSET -18.735201 -5.666702 -4.541200
			CHANNELS 3 Xrotation Yrotation Zrotation
			JOINT RightLeg
			{
				OFFSET 0.018946 -31.938133 0.493100
				CHANNELS 3 Xrotation Yrotation Zrotation
				JOINT RightFoot
				{
					OFFSET -0.018946 -31.938126 -4.336299
					CHANNELS 3 Xrotation Yrotation Zrotation
					JOINT RightToeBase
					{
						OFFSET -0.943001 -26.722004 15.023500
						CHANNELS 3 Xrotation Yrotation Zrotation
						End Site
						{
							OFFSET 0 0 0
						}
					}
				}
			}
		}
	}
	JOINT Hips_virtual
	{
		OFFSET 0.000000 0.000000 0.000000
		CHANNELS 3 Xrotation Yrotation Zrotation
		JOINT Hips
		{
			OFFSET -0.000000 -0.000000 -0.000000
			CHANNELS 3 Xrotation Yrotation Zrotation
			JOINT Spine
			{
				OFFSET 0.000000 10.199997 -0.299500
				CHANNELS 3 Xrotation Yrotation Zrotation
				JOINT Spine1
				{
					OFFSET 0.000000 11.900002 -1.516600
					CHANNELS 3 Xrotation Yrotation Zrotation
					JOINT Spine2
					{
						OFFSET 0.000000 13.600006 -2.842500
						CHANNELS 3 Xrotation Yrotation Zrotation
						JOINT Neck_virtual
						{
							OFFSET 0.000000 0.000000 0.000000
							CHANNELS 3 Xrotation Yrotation Zrotation
							JOINT Neck
							{
								OFFSET 0.000000 9.624100 -2.890100
								CHANNELS 3 Xrotation Yrotation Zrotation
								JOINT Head
								{
									OFFSET 0.000000 14.068802 -1.351900
									CHANNELS 3 Xrotation Yrotation Zrotation
									End Site
									{
										OFFSET 0 0 0
									}
								}
							}
						}
						JOINT LeftShoulder_virtual
						{
							OFFSET 0.000000 0.000000 0.000000
							CHANNELS 3 Xrotation Yrotation Zrotation
							JOINT LeftShoulder
							{
								OFFSET 15.263000 10.923401 -0.547700
								CHANNELS 3 Xrotation Yrotation Zrotation
								JOINT LeftArm
								{
									OFFSET 25.438599 -2.830597 -13.032500
									CHANNELS 3 Xrotation Yrotation Zrotation
									JOINT LeftForeArm
									{
										OFFSET 29.960503 0.000000 0.000000
										CHANNELS 3 Xrotation Yrotation Zrotation
										JOINT LeftHand
										{
											OFFSET 27.849251 0.000000 0.000000
											CHANNELS 3 Xrotation Yrotation Zrotation
											End Site
											{
												OFFSET 0 0 0
											}
										}
									}
								}
							}
						}
						JOINT RightShoulder_virtual
						{
							OFFSET 0.000000 0.000000 0.000000
							CHANNELS 3 Xrotation Yrotation Zrotation
							JOINT RightShoulder
							{
								OFFSET -15.263000 10.923401 -0.547700
								CHANNELS 3 Xrotation Yrotation Zrotation
								JOINT RightArm
								{
									OFFSET -25.438599 -2.830597 -13.032500
									CHANNELS 3 Xrotation Yrotation Zrotation
									JOINT RightForeArm
									{
										OFFSET -29.960503 0.000000 0.000000
										CHANNELS 3 Xrotation Yrotation Zrotation
										JOINT RightHand
										{
											OFFSET -27.849251 0.000000 0.000000
											CHANNELS 3 Xrotation Yrotation Zrotation
											End Site
											{
												OFFSET 0 0 0
											}
										}
									}
								}
							}
						}
					}
				}
			}
		}
	}
}
MOTION
Frames: 4
Frame Time: 0.03333333
5.663493 46.806946 -4.025337 0.000000 0.000000 0.000000 -12.025112 -30.314306 23.216540 -64.377115 -11.866856 37.557144 83.641370 -0.068132 -7.365960 23.302377 1.964732 -16.973351 0.000000 0.000000 0.000000 5.650574 -4.384164 1.000650 -24.789948 -5.937624 -15.537693 100.279253 8.188002 1.104427 29.307440 8.976807 22.991643 0.000000 0.000000 0.000000 -4.098022 -23.147564 2.661663 4.722306 4.250008 7.388702 4.718036 -7.383200 -4.477815 1.969499 -3.551865 -2.284168 0.000000 0.000000 0.000000 3.581037 -3.243558 -0.987567 -0.089036 0.118514 0.101659 0.000000 0.000000 0.000000 3.872164 -2.928188 -0.285042 1.576166 -2.314653 -4.060082 -19.503228 -20.095504 -51.288597 -1.596352 -63.131848 -5.007152 0.000000 0.000000 0.000000 5.204845 -1.011405 -0.807904 4.492145 5.966437 -1.101294 -25.684248 2.923191 36.620254 -55.095782 81.811944 52.577782 0.000000 0.000000 0.000000 
5.619726 46.827087 -4.013546 0.000000 0.000000 0.000000 -12.007213 -30.237497 23.194337 -64.332773 -11.834606 37.547572 83.566429 -0.015542 -7.408862 23.240890 2.045195 -16.998968 0.000000 0.000000 0.000000 5.582721 -4.455002 1.006530 -24.885873 -5.941345 -15.546400 100.194920 8.110950 1.095135 29.323498 8.907767 22.875280 0.000000 0.000000 0.000000 -4.047427 -23.126681 2.702963 4.759750 4.227460 7.525681 4.545777 -7.287195 -4.656312 1.958179 -3.491236 -2.418570 0.000000 0.000000 0.000000 3.605410 -3.226640 -1.046945 -0.115346 0.124156 0.131165 0.000000 0.000000 0.000000 3.833639 -2.887171 -0.334210 1.558123 -2.181818 -3.819716 -19.325066 -20.015485 -51.566419 -1.661387 -63.312036 -5.079336 0.000000 0.000000 0.000000 5.202798 -0.957793 -0.850683 4.464617 5.933954 -1.044203 -25.561848 3.932682 35.813598 -57.957598 82.331947 55.436578 0.000000 0.000000 0.000000 
5.577363 46.844555 -4.008911 0.000000 0.000000 0.000000 -11.980076 -30.171500 23.174185 -64.280577 -11.803724 37.538843 83.499930 0.032517 -7.447083 23.186959 2.117899 -17.022455 0.000000 0.000000 0.000000 5.520207 -4.540370 1.020342 -24.976581 -5.951689 -15.549344 100.128545 8.041603 1.087104 29.342455 8.845665 22.771007 0.000000 0.000000 0.000000 -3.987925 -23.083888 2.747832 4.831661 4.220320 7.671513 4.387603 -7.189194 -4.832402 1.954924 -3.431337 -2.552142 0.000000 0.000000 0.000000 3.627148 -3.212277 -1.108332 -0.143192 0.127392 0.158590 0.000000 0.000000 0.000000 3.791147 -2.844088 -0.387549 1.531347 -2.044051 -3.600111 -19.175350 -19.935830 -51.835094 -1.742077 -63.491116 -5.157898 0.000000 0.000000 0.000000 5.190999 -0.908293 -0.893456 4.422218 5.882900 -0.988892 -25.493416 4.856917 35.111813 -61.680023 82.803196 59.162149 0.000000 0.000000 0.000000 
5.534416 46.861061 -4.009117 0.000000 0.000000 0.000000 -11.946049 -30.111405 23.154521 -64.221516 -11.772936 37.530144 83.439353 0.072395 -7.481427 23.140121 2.179322 -17.048574 0.000000 0.000000 0.000000 5.461714 -4.644125 1.039701 -25.063405 -5.968796 -15.548832 100.076840 7.978230 1.081701 29.365169 8.788377 22.678414 0.000000 0.000000 0.000000 -3.907977 -23.048994 2.793717 5.007759 4.185919 7.785709 4.256173 -7.093134 -5.004899 1.965883 -3.373958 -2.684128 0.000000 0.000000 0.000000 3.650232 -3.202228 -1.169587 -0.172050 0.128608 0.185015 0.000000 0.000000 0.000000 3.753957 -2.799641 -0.442779 1.502806 -1.897382 -3.395393 -19.033721 -19.866505 -52.082559 -1.817958 -63.673455 -5.224857 0.000000 0.000000 0.000000 5.177673 -0.865147 -0.933365 4.371358 5.811160 -0.924387 -25.449000 5.688488 34.527405 -66.224319 83.206355 63.725030 0.000000 0.000000 0.000000 
